<svg width="24" height="24" viewBox="0 0 24 24" fill="none" xmlns="http://www.w3.org/2000/svg">
<path d="M4 19H2C2 17.4087 2.63214 15.8826 3.75736 14.7574C4.88258 13.6321 6.4087 13 8 13C9.5913 13 11.1174 13.6321 12.2426 14.7574C13.3679 15.8826 14 17.4087 14 19H12C12 17.9391 11.5786 16.9217 10.8284 16.1716C10.0783 15.4214 9.06087 15 8 15C6.93913 15 5.92172 15.4214 5.17157 16.1716C4.42143 16.9217 4 17.9391 4 19V19ZM15.994 15.41L13.288 12.71L14.7 11.292L15.992 12.584L20.292 8.292L21.704 9.708L15.992 15.408L15.994 15.41V15.41ZM8 12C6.93913 12 5.92172 11.5786 5.17157 10.8284C4.42143 10.0783 4 9.06087 4 8C4 6.93913 4.42143 5.92172 5.17157 5.17157C5.92172 4.42143 6.93913 4 8 4C9.06087 4 10.0783 4.42143 10.8284 5.17157C11.5786 5.92172 12 6.93913 12 8C12 9.06087 11.5786 10.0783 10.8284 10.8284C10.0783 11.5786 9.06087 12 8 12ZM8 6C7.60836 6.0004 7.22545 6.11577 6.89878 6.33181C6.57211 6.54785 6.31606 6.85505 6.1624 7.21528C6.00874 7.57552 5.96422 7.97295 6.03438 8.35826C6.10453 8.74357 6.28627 9.0998 6.55704 9.38276C6.82782 9.66572 7.17571 9.86295 7.55756 9.94999C7.93941 10.037 8.33841 10.01 8.70506 9.87236C9.07171 9.73469 9.38987 9.49241 9.62007 9.17556C9.85027 8.85871 9.98238 8.48125 10 8.09V8.49V8C10 7.46957 9.78929 6.96086 9.41421 6.58579C9.03914 6.21071 8.53043 6 8 6V6Z" fill="#4ECB71"/>
</svg>
